<svg width="25" height="25" viewBox="0 0 25 25" fill="none" xmlns="http://www.w3.org/2000/svg">
<g id="vuesax/outline/edit-2">
<g id="edit-2">
<path id="Vector" d="M5.83588 19.8153C5.22588 19.8153 4.65588 19.6053 4.24588 19.2153C3.72588 18.7253 3.47588 17.9853 3.56588 17.1853L3.93589 13.9453C4.00589 13.3353 4.37589 12.5253 4.80589 12.0853L13.0159 3.39534C15.0659 1.22534 17.2059 1.16534 19.3759 3.21534C21.5459 5.26534 21.6059 7.40534 19.5559 9.57534L11.3459 18.2653C10.9259 18.7153 10.1459 19.1353 9.53588 19.2353L6.31588 19.7853C6.14588 19.7953 5.99588 19.8153 5.83588 19.8153ZM16.2259 3.20534C15.4559 3.20534 14.7859 3.68534 14.1059 4.40534L5.89588 13.1053C5.69588 13.3153 5.46589 13.8153 5.42589 14.1053L5.05589 17.3453C5.01589 17.6753 5.09589 17.9453 5.27588 18.1153C5.45588 18.2853 5.72589 18.3453 6.05589 18.2953L9.27588 17.7453C9.56588 17.6953 10.0459 17.4353 10.2459 17.2253L18.4559 8.53534C19.6959 7.21534 20.1459 5.99534 18.3359 4.29534C17.5359 3.52534 16.8459 3.20534 16.2259 3.20534Z" fill="white"/>
<path id="Vector_2" d="M17.6363 11.2453C17.6163 11.2453 17.5863 11.2453 17.5663 11.2453C14.4463 10.9353 11.9363 8.56532 11.4563 5.46532C11.3963 5.05532 11.6763 4.67532 12.0863 4.60532C12.4963 4.54532 12.8763 4.82532 12.9463 5.23532C13.3263 7.65532 15.2863 9.51532 17.7263 9.75532C18.1363 9.79532 18.4363 10.1653 18.3963 10.5753C18.3463 10.9553 18.0163 11.2453 17.6363 11.2453Z" fill="white"/>
<path id="Vector_3" d="M21.2959 23.0453H3.2959C2.8859 23.0453 2.5459 22.7053 2.5459 22.2953C2.5459 21.8853 2.8859 21.5453 3.2959 21.5453H21.2959C21.7059 21.5453 22.0459 21.8853 22.0459 22.2953C22.0459 22.7053 21.7059 23.0453 21.2959 23.0453Z" fill="white"/>
</g>
</g>
</svg>
