<svg width="34" height="35" viewBox="0 0 34 35" fill="none" xmlns="http://www.w3.org/2000/svg">
<g id="vuesax/outline/money-send">
<g id="vuesax/outline/money-send_2">
<g id="money-send">
<path id="Vector" d="M18.4874 23.9458H15.8241C13.9399 23.9458 12.3958 22.3591 12.3958 20.4041C12.3958 19.8233 12.8774 19.3416 13.4583 19.3416C14.0391 19.3416 14.5208 19.8233 14.5208 20.4041C14.5208 21.1833 15.1016 21.8208 15.8241 21.8208H18.4874C19.0399 21.8208 19.4791 21.3249 19.4791 20.7158C19.4791 19.9508 19.2666 19.8374 18.7849 19.6674L14.5208 18.1799C13.6141 17.8541 12.3958 17.2025 12.3958 15.12C12.3958 13.3491 13.7983 11.89 15.5124 11.89H18.1757C20.0599 11.89 21.6041 13.4766 21.6041 15.4316C21.6041 16.0125 21.1224 16.4941 20.5416 16.4941C19.9608 16.4941 19.4791 16.0125 19.4791 15.4316C19.4791 14.6525 18.8982 14.015 18.1757 14.015H15.5124C14.9599 14.015 14.5208 14.5108 14.5208 15.12C14.5208 15.885 14.7332 15.9983 15.2149 16.1683L19.4791 17.6558C20.3858 17.9816 21.6041 18.6333 21.6041 20.7158C21.6041 22.5008 20.2016 23.9458 18.4874 23.9458Z" fill="#FDB913"/>
<path id="Vector_2" d="M17 25.3625C16.4192 25.3625 15.9375 24.8808 15.9375 24.3V11.55C15.9375 10.9692 16.4192 10.4875 17 10.4875C17.5808 10.4875 18.0625 10.9692 18.0625 11.55V24.3C18.0625 24.8808 17.5808 25.3625 17 25.3625Z" fill="#FDB913"/>
<path id="Vector_3" d="M16.9999 33.1541C8.59909 33.1541 1.77075 26.3258 1.77075 17.925C1.77075 9.52413 8.59909 2.6958 16.9999 2.6958C17.5808 2.6958 18.0624 3.17747 18.0624 3.7583C18.0624 4.33913 17.5808 4.8208 16.9999 4.8208C9.77492 4.8208 3.89575 10.7 3.89575 17.925C3.89575 25.15 9.77492 31.0291 16.9999 31.0291C24.2249 31.0291 30.1041 25.15 30.1041 17.925C30.1041 17.3441 30.5858 16.8625 31.1666 16.8625C31.7474 16.8625 32.2291 17.3441 32.2291 17.925C32.2291 26.3258 25.4008 33.1541 16.9999 33.1541Z" fill="white"/>
<path id="Vector_4" d="M31.1667 10.4875C30.5858 10.4875 30.1042 10.0058 30.1042 9.42497V4.8208H25.5C24.9192 4.8208 24.4375 4.33913 24.4375 3.7583C24.4375 3.17747 24.9192 2.6958 25.5 2.6958H31.1667C31.7475 2.6958 32.2292 3.17747 32.2292 3.7583V9.42497C32.2292 10.0058 31.7475 10.4875 31.1667 10.4875Z" fill="#FDB913"/>
<path id="Vector_5" d="M24.0834 11.9041C23.8142 11.9041 23.545 11.805 23.3325 11.5925C22.9217 11.1816 22.9217 10.5016 23.3325 10.0908L30.4159 3.00747C30.8267 2.59663 31.5067 2.59663 31.9175 3.00747C32.3284 3.4183 32.3284 4.0983 31.9175 4.50913L24.8342 11.5925C24.6217 11.805 24.3525 11.9041 24.0834 11.9041Z" fill="#FDB913"/>
</g>
</g>
</g>
</svg>
