<svg width="20" height="12" viewBox="0 0 20 12" fill="none" xmlns="http://www.w3.org/2000/svg">
<path id="Arrow 1" d="M1.5 5.25C1.08579 5.25 0.75 5.58579 0.75 6C0.75 6.41421 1.08579 6.75 1.5 6.75L1.5 5.25ZM19.0303 6.53033C19.3232 6.23744 19.3232 5.76256 19.0303 5.46967L14.2574 0.6967C13.9645 0.403807 13.4896 0.403807 13.1967 0.6967C12.9038 0.989594 12.9038 1.46447 13.1967 1.75736L17.4393 6L13.1967 10.2426C12.9038 10.5355 12.9038 11.0104 13.1967 11.3033C13.4896 11.5962 13.9645 11.5962 14.2574 11.3033L19.0303 6.53033ZM1.5 6.75L18.5 6.75L18.5 5.25L1.5 5.25L1.5 6.75Z" fill="black"/>
</svg>
