<svg width="28" height="28" viewBox="0 0 28 28" fill="none" xmlns="http://www.w3.org/2000/svg">
<g id="Icon feather-copy">
<path id="Path 639" d="M12.2731 10.2425H23.5461C24.2104 10.2425 24.8476 10.5064 25.3174 10.9762C25.7871 11.446 26.0511 12.0831 26.0511 12.7475V24.0205C26.0511 24.6849 25.7871 25.322 25.3174 25.7918C24.8476 26.2616 24.2104 26.5255 23.5461 26.5255H12.2731C11.6087 26.5255 10.9715 26.2616 10.5018 25.7918C10.032 25.322 9.76807 24.6849 9.76807 24.0205V12.7475C9.76807 12.0831 10.032 11.446 10.5018 10.9762C10.9715 10.5064 11.6087 10.2425 12.2731 10.2425Z" stroke="black" stroke-width="2" stroke-linecap="round" stroke-linejoin="round"/>
<path id="Path 640" d="M4.758 17.7575H3.505C2.84063 17.7575 2.20348 17.4936 1.7337 17.0238C1.26392 16.554 1 15.9169 1 15.2525V3.97949C1 3.31512 1.26392 2.67796 1.7337 2.20818C2.20348 1.73841 2.84063 1.47449 3.505 1.47449H14.778C15.4424 1.47449 16.0795 1.73841 16.5493 2.20818C17.0191 2.67796 17.283 3.31512 17.283 3.97949V5.23249" stroke="black" stroke-width="2" stroke-linecap="round" stroke-linejoin="round"/>
</g>
</svg>
